# xmcd
#
# Track frame offsets:
#	150
#	19430
#	40270
#	57757
#	77150
#	95380
#	110607
#	132340
#	146895
#	164827
#
# Disc length: 2457 seconds
#
# Revision: 2
# Processed by: cddbd v1.5.2PL0 Copyright (c) Steve Scherf et al.
# Submitted via: EasyCDDAExtractor 8.2.3.1
#
DISCID=9009970a
DTITLE=Various Artist - Gumbo Blues
DYEAR=1998
DGENRE=Blues
TTITLE0=Jumpin Johnny Sansone - Your Kind Of Love
TTITLE1=George Porter Jr  - Don't You Make Me Act Ig'nunt
TTITLE2=Phillip Walker and Li'l Brian and The Zydeco Travellers - My Baby's Going 
TTITLE2=To Wash Me Down
TTITLE3=Dalton Reed - The More You Got
TTITLE4=Grady Gaines and The Texas Upsetters - Stomp House Blues
TTITLE5=Carol Fran and Clarence Williams - Door Poppin
TTITLE6=Earl King - Handy Wrap
TTITLE7=Pat Boyack and The Prowlers - Louisianna Love Shack
TTITLE8=Rockin' Sidney - Just Jammin
TTITLE9=U.p. Wilson - Hold Me
EXTD=Compilation disc from Blockbuster\n
EXTT0=\n
EXTT1=
EXTT2=
EXTT3=
EXTT4=
EXTT5=
EXTT6=
EXTT7=
EXTT8=
EXTT9=
PLAYORDER=
